<svg width="240" height="80" viewBox="0 0 240 80" xmlns="http://www.w3.org/2000/svg" role="img" aria-label="AKILI">
  <defs>
    <linearGradient id="dataFillEmail" x1="0%" y1="0%" x2="100%" y2="100%">
      <stop offset="0%" stop-color="#D97706" stop-opacity="0.15" />
      <stop offset="100%" stop-color="#4EA5D9" stop-opacity="0.08" />
    </linearGradient>
  </defs>
  <g transform="translate(40,40)">
    <polygon points="0,-22 20,-7 13,19 -13,19 -20,-7" fill="none" stroke="#4EA5D9" stroke-width="2" stroke-linejoin="round" opacity="0.8"/>
    <polygon points="0,-14 12.5,-4.5 8,12 -8,12 -12.5,-4.5" fill="none" stroke="#4EA5D9" stroke-width="1.5" stroke-linejoin="round" opacity="0.6"/>
    <polygon points="0,-8 7,-2.5 4.5,6.5 -4.5,6.5 -7,-2.5" fill="none" stroke="#4EA5D9" stroke-width="1.2" stroke-linejoin="round" opacity="0.4"/>
    <line x1="0" y1="0" x2="0" y2="-22" stroke="#4EA5D9" stroke-width="1.5" stroke-linecap="round" opacity="0.7" />
    <line x1="0" y1="0" x2="20" y2="-7" stroke="#4EA5D9" stroke-width="1.5" stroke-linecap="round" opacity="0.7" />
    <line x1="0" y1="0" x2="13" y2="19" stroke="#4EA5D9" stroke-width="1.5" stroke-linecap="round" opacity="0.7" />
    <line x1="0" y1="0" x2="-13" y2="19" stroke="#4EA5D9" stroke-width="1.5" stroke-linecap="round" opacity="0.7" />
    <line x1="0" y1="0" x2="-20" y2="-7" stroke="#4EA5D9" stroke-width="1.5" stroke-linecap="round" opacity="0.7" />
    <polygon points="0,-18 16,-4 9,14 -6,10 -14,-4" fill="url(#dataFillEmail)" stroke="#D97706" stroke-width="2" stroke-linejoin="round"/>
    <circle cx="0" cy="-18" r="2.5" fill="#D97706"/>
    <circle cx="16" cy="-4" r="2.5" fill="#D97706"/>
    <circle cx="9" cy="14" r="2.5" fill="#D97706"/>
    <circle cx="-6" cy="10" r="2.5" fill="#D97706"/>
    <circle cx="-14" cy="-4" r="2.5" fill="#D97706"/>
    <circle cx="0" cy="0" r="3" fill="#4EA5D9"/>
  </g>
  <text x="75" y="50" font-family="IBM Plex Sans, -apple-system, BlinkMacSystemFont, Segoe UI, Roboto, sans-serif" font-size="36" font-weight="800" fill="#f8fafc" letter-spacing="1">AKILI</text>
  <text x="218" y="19" font-family="IBM Plex Sans, sans-serif" font-size="10" font-weight="600" fill="#D97706">&#174;</text>
</svg>
